# xmcd CD database file
#
# Track frame offsets:
#	150
#	21010
#	38592
#
# Disc length: 792 seconds
#
# Revision: 2
# Processed by: cddbd v1.5.1PL0 Copyright (c) Steve Scherf et al.
# Submitted via: CDex 1.51
#
DISCID=16031603
DTITLE=横山輝一 - Limit
DYEAR=1994
DGENRE=JPop
TTITLE0=Limit
TTITLE1=こんな恋　二度とできない
TTITLE2=Limit (Instrumental)
EXTD=YEAR: 1994
EXTT0=
EXTT1=
EXTT2=
PLAYORDER=
